HIERARCHY
ROOT root
{
	OFFSET	0	260	24
	CHANNELS 6  Xposition Yposition Zposition Xrotation Yrotation Zrotation
	JOINT spine_3
	{
		OFFSET	0	81.6	10.2
		CHANNELS 3  Xrotation Yrotation Zrotation
		JOINT spine_4
		{
			OFFSET	0	110.4	14.6
			CHANNELS 3  Xrotation Yrotation Zrotation
			JOINT neck_1
			{
				OFFSET	0	71.8	-50.3
				CHANNELS 3  Xrotation Yrotation Zrotation
				JOINT neck_2
				{
					OFFSET	0	86.2	-25.8
					CHANNELS 3  Xrotation Yrotation Zrotation
					JOINT head_ee
					{
						OFFSET	0	179.8	-8.7
						CHANNELS 3  Xrotation Yrotation Zrotation
						End Site
						{
							OFFSET	1	0	0
						}
					}
				}
			}
			JOINT left_clavicle
			{
				OFFSET	-43.2	22.4	-70.8
				CHANNELS 3  Xrotation Yrotation Zrotation
				JOINT left_shoulder
				{
					OFFSET	-93.9	-5.79999	48.7
					CHANNELS 3  Xrotation Yrotation Zrotation
					JOINT left_elbow
					{
						OFFSET	-291.4	-30.8	15.2
						CHANNELS 3  Xrotation Yrotation Zrotation
						JOINT left_lowarm_twist
						{
							OFFSET	-110.7	-3.89999	13.6
							CHANNELS 3  Xrotation Yrotation Zrotation
							JOINT left_hand
							{
								OFFSET	-110.7	-3.89999	13.6
								CHANNELS 3  Xrotation Yrotation Zrotation
								JOINT left_ee
								{
									OFFSET	-80.8	-5.10001	12.1
									CHANNELS 3  Xrotation Yrotation Zrotation
									End Site
									{
										OFFSET	1	0	0
									}
								}
							}
						}
					}
				}
			}
			JOINT right_clavicle
			{
				OFFSET	43.2	22.4	-70.8
				CHANNELS 3  Xrotation Yrotation Zrotation
				JOINT right_shoulder
				{
					OFFSET	93.9	-5.79999	48.7
					CHANNELS 3  Xrotation Yrotation Zrotation
					JOINT right_elbow
					{
						OFFSET	291.4	-30.8	15.2
						CHANNELS 3  Xrotation Yrotation Zrotation
						JOINT right_lowarm_twist
						{
							OFFSET	110.7	-3.89999	13.6
							CHANNELS 3  Xrotation Yrotation Zrotation
							JOINT right_hand
							{
								OFFSET	110.7	-3.89999	13.6
								CHANNELS 3  Xrotation Yrotation Zrotation
								JOINT right_ee
								{
									OFFSET	80.8	-5.10001	12.1
									CHANNELS 3  Xrotation Yrotation Zrotation
									End Site
									{
										OFFSET	1	0	0
									}
								}
							}
						}
					}
				}
			}
		}
	}
	JOINT spine_2
	{
		OFFSET	0	-124.9	-9.1
		CHANNELS 3  Xrotation Yrotation Zrotation
		JOINT spine_1
		{
			OFFSET	0	-112	10
			CHANNELS 3  Xrotation Yrotation Zrotation
			JOINT left_hip
			{
				OFFSET	-82.8	-137.5	0.300001
				CHANNELS 3  Xrotation Yrotation Zrotation
				JOINT left_knee
				{
					OFFSET	-28.2	-396.7	2.2
					CHANNELS 3  Xrotation Yrotation Zrotation
					JOINT left_ankle
					{
						OFFSET	-11.7	-411.3	35.4
						CHANNELS 3  Xrotation Yrotation Zrotation
						JOINT left_toes
						{
							OFFSET	0	-60	-88.6
							CHANNELS 3  Xrotation Yrotation Zrotation
							JOINT left_foot_ee
							{
								OFFSET	-22.5	-16.5	-42.2
								CHANNELS 3  Xrotation Yrotation Zrotation
								End Site
								{
									OFFSET	1	0	0
								}
							}
						}
					}
				}
			}
			JOINT right_hip
			{
				OFFSET	82.8	-137.5	0.300001
				CHANNELS 3  Xrotation Yrotation Zrotation
				JOINT right_knee
				{
					OFFSET	28.2	-396.7	2.2
					CHANNELS 3  Xrotation Yrotation Zrotation
					JOINT right_ankle
					{
						OFFSET	11.7	-411.3	35.4
						CHANNELS 3  Xrotation Yrotation Zrotation
						JOINT right_toes
						{
							OFFSET	0	-60	-88.6
							CHANNELS 3  Xrotation Yrotation Zrotation
							JOINT right_foot_ee
							{
								OFFSET	22.5	-16.5	-42.2
								CHANNELS 3  Xrotation Yrotation Zrotation
								End Site
								{
									OFFSET	1	0	0
								}
							}
						}
					}
				}
			}
		}
	}
}
MOTION
Frames: 8
Frame Time: 0.02
3156.69 940.69 -944.13 -16.741 65.0337 16.0819 2.90327 -0.337484 -1.40796 2.90094 -0.55559 -1.33701 -9.80542 10.3911 4.44685 -9.83845 16.5474 6.90228 -0.0 0.0 -0.0 8.9621 -5.80787 17.6241 -16.3796 -18.7157 46.7573 2.24199 -47.9936 0.998152 -1.13245 -0.0412755 0.138726 1.9166 -17.6258 5.3005 -0.0 0.0 -0.0 10.3668 -7.75756 -19.7967 -63.7432 39.3466 -44.1929 0.547213 15.167 -0.0728542 -85.2408 8.48202 -5.1786 -3.91326 -13.7297 19.2362 0.0 0.0 0.0 -2.9027 0.490608 1.36219 -2.90355 0.576286 1.32822 0.231163 -5.29459 -4.46791 -18.8844 0.307245 2.86859 39.8459 17.4792 -4.96098 -10.812 0.0 0.0 -0.0 0.0 -0.0 37.789 35.6845 -2.79033 5.97327 0.291645 0.869548 -7.43573 -21.447 -1.13254 -11.8438 0.0 0.0 0.0 0.0 0.0 
3133.72 936.779 -957.0 -18.521 65.3192 18.0818 2.73335 -0.29913 -1.20195 2.73166 -0.48519 -1.13964 -9.58794 10.3322 4.31013 -9.61776 16.4971 6.72577 -0.0 0.0 -0.0 8.82083 -6.988 17.3205 -17.3415 -18.5689 46.5016 2.20427 -47.51 0.970227 -1.22351 -0.0447131 0.149845 2.0128 -17.8655 5.83372 -0.0 0.0 -0.0 10.6093 -8.2278 -20.2142 -63.7512 39.4395 -44.2612 0.539792 14.9706 -0.0709248 -85.0264 8.45522 -5.18393 -3.865 -13.2729 19.1885 0.0 0.0 0.0 -2.73293 0.436657 1.1591 -2.73354 0.509524 1.12897 -0.674541 -5.85924 -5.15588 -18.8883 0.307211 2.86918 39.1551 17.8473 -4.90438 -11.1075 0.0 0.0 -0.0 0.0 -0.0 38.0731 35.6643 -3.79385 5.11799 0.244333 0.746937 -9.22585 -21.1762 -1.40733 -12.1153 0.0 0.0 0.0 0.0 0.0 
3112.4 938.776 -971.035 -19.8433 65.6903 19.6324 2.7185 -0.242101 -1.02133 2.71727 -0.400355 -0.970288 -6.31904 10.3847 1.7814 -6.29311 17.9406 3.79487 -0.0 0.0 -0.0 9.43012 -7.02537 18.6197 -17.9022 -18.6612 45.7702 1.89605 -43.2011 0.750778 -1.89823 -0.0707384 0.232067 2.06132 -17.885 6.14941 -0.0 0.0 -0.0 10.7276 -7.89534 -20.481 -62.1033 41.1065 -45.5541 0.426044 11.9176 -0.0444695 -85.1467 8.47026 -5.18095 -3.66427 -11.9552 18.6202 0.0 0.0 0.0 -2.7182 0.359548 0.986137 -2.71864 0.421567 0.961263 -0.943054 -5.78618 -5.15496 -18.6879 0.308946 2.83847 37.2824 18.4315 -4.73761 -11.1998 0.0 0.0 -0.0 0.0 -0.0 38.1193 35.4612 -4.43229 4.65019 0.219234 0.679584 -9.01825 -20.7312 -1.37294 -11.2517 0.0 0.0 0.0 0.0 0.0 
3086.04 945.921 -996.093 -21.7175 66.5237 21.4062 2.7441 -0.0526824 -0.964093 2.74286 -0.204275 -0.943677 -4.092 10.2629 -0.0387682 -3.97947 18.816 1.59696 -0.0 0.0 -0.0 9.56769 -6.41172 18.9131 -20.8073 -19.5766 45.1961 1.58765 -38.1813 0.549514 -2.90494 -0.111368 0.354169 2.20819 -17.8357 7.15616 -0.0 0.0 -0.0 10.6343 -9.22045 -20.1467 -60.0123 42.5531 -46.6014 0.322887 9.08761 -0.0256602 -85.2306 8.48073 -5.17886 -3.43656 -10.6031 17.861 0.0 0.0 0.0 -2.74383 0.163897 0.95152 -2.7443 0.22411 0.939165 -1.19506 -5.54475 -5.94261 -18.5085 0.310407 2.81099 33.8825 19.5598 -4.41629 -11.5976 0.0 0.0 -0.0 0.0 -0.0 37.2594 35.2302 -4.95966 3.87548 0.178883 0.56761 -11.0026 -20.5387 -1.67814 -10.7036 0.0 0.0 0.0 0.0 0.0 
3065.57 955.076 -1011.06 -21.4579 67.0817 21.4403 2.67165 0.0256854 -0.831471 2.6707 -0.105948 -0.825094 -3.74915 10.1989 -0.746985 -3.611 19.2033 0.802678 -0.0 0.0 -0.0 9.35237 -4.97879 18.445 -23.4369 -22.6654 45.1018 1.4303 -35.3166 0.455341 -3.94029 -0.155388 0.478993 2.35406 -16.2855 8.86028 -0.0 0.0 -0.0 10.4408 -10.7675 -19.5915 -57.2867 43.9627 -47.0385 0.260943 7.36559 -0.0167958 -84.9197 8.44189 -5.18655 -3.10678 -8.26214 16.9176 0.0 0.0 0.0 -2.67144 0.0728012 0.828676 -2.67181 0.125383 0.822365 -1.00482 -6.04488 -6.36321 -18.3116 0.311912 2.78081 28.2465 21.7778 -3.83563 -12.0381 0.0 0.0 -0.0 0.0 -0.0 37.1333 34.7766 -6.8869 -0.157057 -0.00643503 -0.0232429 -9.46106 -18.7052 -1.43131 -8.55094 0.0 0.0 0.0 0.0 0.0 
3041.7 957.701 -1027.81 -19.8383 66.0202 19.9647 2.57089 0.0170792 -0.542327 2.57049 -0.0687842 -0.538218 -3.35242 9.78195 -2.02455 -3.17393 19.3859 -0.65091 -0.0 0.0 -0.0 9.58106 -4.46453 18.9221 -24.4052 -20.7568 45.0523 1.21439 -31.0287 0.337118 -4.56459 -0.183021 0.553872 2.41238 -17.3082 8.77565 -0.0 0.0 -0.0 10.0983 -11.0487 -18.9206 -55.5023 45.1122 -48.0365 0.288609 8.13653 -0.0205272 -84.7554 8.42134 -5.19053 -3.05549 -8.39153 16.5007 0.0 0.0 0.0 -2.5708 0.049058 0.540373 -2.57096 0.0833435 0.536157 -1.02199 -6.22051 -6.19161 -19.3763 0.302538 2.94391 27.4372 21.2144 -3.73121 -12.6035 0.0 0.0 -0.0 0.0 -0.0 36.9081 34.2944 -8.66905 -0.741324 -0.0298144 -0.109858 -12.4011 -18.0803 -1.87928 -8.8569 0.0 0.0 0.0 0.0 0.0 
3024.41 963.068 -1039.4 -20.0057 65.6936 20.5655 2.44735 0.0419308 -0.556757 2.44692 -0.0465234 -0.556392 -6.05837 9.65463 -1.75942 -6.00002 19.1478 0.0490668 -0.0 0.0 -0.0 9.69161 -3.83811 19.1442 -26.6723 -20.6879 45.3172 1.1769 -30.2412 0.318016 -3.63885 -0.142339 0.442733 2.29863 -16.978 8.16372 -0.0 0.0 -0.0 9.75397 -14.0726 -17.9243 -55.883 48.5064 -44.0856 0.333321 9.37614 -0.0273342 -85.1615 8.47211 -5.18058 -2.24008 -4.36312 13.0361 0.0 0.0 0.0 -2.44726 0.0285528 0.557603 -2.44743 0.0639761 0.554657 0.680036 -6.6305 -6.36196 -22.4666 0.258189 3.41597 26.6865 25.5148 -3.72628 -12.6343 0.0 0.0 -0.0 0.0 -0.0 36.9251 34.0411 -10.3966 -2.95916 -0.110478 -0.440647 -8.47523 -18.8221 -1.28087 -2.9211 0.0 0.0 0.0 0.0 0.0 
3011.14 971.162 -1056.58 -21.1903 65.7334 22.2212 2.49062 0.111216 -0.042442 2.49063 0.103117 -0.0594738 -3.59568 9.7825 -2.19069 -3.42157 19.5329 -0.783526 -0.0 0.0 -0.0 9.67911 -3.20178 19.1034 -28.1575 -20.5175 43.6886 0.965869 -25.5689 0.21917 -5.87692 -0.243764 0.710285 2.48144 -17.1418 9.31974 -0.0 0.0 -0.0 9.94664 -13.3699 -18.3568 -49.3562 47.8951 -48.8984 0.383287 10.7509 -0.0360658 -83.8185 8.30392 -5.21207 -2.87616 -7.36263 15.8307 0.0 0.0 0.0 -2.49062 -0.105067 0.0559573 -2.49062 -0.101293 0.0625296 2.38076 -6.88196 -7.21065 -22.0707 0.265293 3.35563 23.0526 21.2865 -3.20264 -13.5947 0.0 0.0 -0.0 0.0 -0.0 36.3965 33.5253 -11.1709 -2.51615 -0.0953911 -0.374332 -14.3783 -16.7958 -2.17564 -7.48312 0.0 0.0 0.0 0.0 0.0 
